<svg preserveAspectRatio="none" width="100%" height="100%" overflow="visible" style="display: block;" viewBox="0 0 38 40" fill="none" xmlns="http://www.w3.org/2000/svg">
<g id="S&#195;&#173;mbolo">
<path fill-rule="evenodd" clip-rule="evenodd" d="M31.334 8.90245C31.334 8.07337 31.7885 7.30748 32.5258 6.89411L35.5997 5.17071C36.941 4.4187 37.4003 2.74762 36.6244 1.44269C35.8521 0.143892 34.1475 -0.301311 32.8125 0.447097L28.1113 3.08251C26.6366 3.90922 25.7275 5.44107 25.7275 7.09931V7.35545C25.7275 7.76566 25.95 8.14528 26.3126 8.35352L30.4381 10.7229C30.8343 10.9504 31.334 10.672 31.334 10.2238L31.334 8.90245Z" fill="var(--fill-0, #E55A37)"/>
<path fill-rule="evenodd" clip-rule="evenodd" d="M5.63744 14.6083C5.63744 14.6199 5.63778 14.6314 5.63844 14.6428V17.1118C5.63844 17.9116 6.30356 18.5599 7.12402 18.5599C7.94447 18.5599 8.60959 17.9116 8.60959 17.1118V13.9424L16.6282 9.443C18.0964 8.61919 19.9034 8.61918 21.3716 9.443L31.334 15.033L32.4409 15.6541L32.5654 15.7256L35.6168 17.4369C37.0911 18.2637 37.9999 19.7953 37.9999 21.4532L38 27.3726C38 29.0302 37.0917 30.5615 35.6178 31.3885L21.3718 39.3821C19.9036 40.206 18.0966 40.206 16.6284 39.3821L2.38231 31.3884C0.908549 30.5615 0.000191212 29.0302 0.00015978 27.3727L0 18.7733L0.0309108 18.756V7.01541C0.0309108 5.35716 0.940004 3.82532 2.41474 2.9986L7.11592 0.363195C8.45097 -0.385214 10.1556 0.0599895 10.9278 1.35879C11.7038 2.66372 11.2444 4.3348 9.90314 5.08681L8.02104 6.14202C6.54644 6.96876 5.63744 8.50054 5.63744 10.1587V14.6083Z" fill="var(--fill-0, #E55A37)"/>
</g>
</svg>
